<svg xmlns="http://www.w3.org/2000/svg" xmlns:xlink="http://www.w3.org/1999/xlink" contentStyleType="text/css" height="298px" preserveAspectRatio="none" style="width:1069px;height:298px;background:#FFFFFF;" version="1.1" viewBox="0 0 1069 298" width="1069px" zoomAndPan="magnify"><defs/><g><!--cluster rocrate_validator--><g id="cluster_rocrate_validator"><path d="M8.5,6 L144.7148,6 A3.75,3.75 0 0 1 147.2148,8.5 L154.2148,28.2969 L1059.5,28.2969 A2.5,2.5 0 0 1 1062,30.7969 L1062,289.09 A2.5,2.5 0 0 1 1059.5,291.59 L8.5,291.59 A2.5,2.5 0 0 1 6,289.09 L6,8.5 A2.5,2.5 0 0 1 8.5,6 " fill="none" style="stroke:#000000;stroke-width:1.5;"/><line style="stroke:#000000;stroke-width:1.5;" x1="6" x2="154.2148" y1="28.2969" y2="28.2969"/><text fill="#000000" font-family="sans-serif" font-size="14" font-weight="bold" lengthAdjust="spacing" textLength="135.2148" x="10" y="20.9951">rocrate_validator</text></g><!--cluster models--><g id="cluster_models"><path d="M423.5,184.59 L481.3545,184.59 A3.75,3.75 0 0 1 483.8545,187.09 L490.8545,206.8869 L651.5,206.8869 A2.5,2.5 0 0 1 654,209.3869 L654,265.09 A2.5,2.5 0 0 1 651.5,267.59 L423.5,267.59 A2.5,2.5 0 0 1 421,265.09 L421,187.09 A2.5,2.5 0 0 1 423.5,184.59 " fill="none" style="stroke:#000000;stroke-width:1.5;"/><line style="stroke:#000000;stroke-width:1.5;" x1="421" x2="490.8545" y1="206.8869" y2="206.8869"/><text fill="#000000" font-family="sans-serif" font-size="14" font-weight="bold" lengthAdjust="spacing" textLength="56.8545" x="425" y="199.5851">models</text></g><!--class services--><a href="#rocrate_validator.services.get_profiles" target="_top" title="#rocrate_validator.services.get_profiles" xlink:actuate="onRequest" xlink:href="#rocrate_validator.services.get_profiles" xlink:show="new" xlink:title="#rocrate_validator.services.get_profiles" xlink:type="simple"><g id="elem_services"><rect codeLine="8" fill="#F1F1F1" height="80.5938" id="services" rx="2.5" ry="2.5" style="stroke:#181818;stroke-width:0.5;" width="1023.9307" x="22.03" y="41"/><ellipse cx="501.0241" cy="57" fill="#B4A7E5" rx="11" ry="11" style="stroke:#181818;stroke-width:1;"/><path d="M497.0554,63.5 L497.0554,61.7969 L499.4148,61.5313 L499.4148,53.3281 L497.0554,53.0625 L497.0554,51.3594 L504.196,51.3594 L504.196,53.0625 L501.7741,53.3281 L501.7741,61.5313 L504.196,61.7969 L504.196,63.5 L497.0554,63.5 Z " fill="#000000"/><text fill="#000000" font-family="sans-serif" font-size="14" font-style="italic" lengthAdjust="spacing" textLength="57.4424" x="521.5241" y="61.8467">services</text><line style="stroke:#181818;stroke-width:0.5;" x1="23.03" x2="1044.9607" y1="73" y2="73"/><line style="stroke:#181818;stroke-width:0.5;" x1="23.03" x2="1044.9607" y1="81" y2="81"/><ellipse cx="33.03" cy="94.6484" fill="#84BE84" rx="3" ry="3" style="stroke:#038048;stroke-width:1;"/><text fill="#000000" font-family="sans-serif" font-size="14" lengthAdjust="spacing" textLength="997.9307" x="42.03" y="97.9951">get_profile(profiles_path: Optional[Path], profile_identifier: str, severity: rocrate_validator.models.Severity) -&gt; rocrate_validator.models.Profile</text><ellipse cx="33.03" cy="110.9453" fill="#84BE84" rx="3" ry="3" style="stroke:#038048;stroke-width:1;"/><text fill="#000000" font-family="sans-serif" font-size="14" lengthAdjust="spacing" textLength="885.7461" x="42.03" y="114.292">get_profiles(profiles_path: Optional[Path], severity: rocrate_validator.models.Severity) -&gt; list[rocrate_validator.models.Profile]</text></g></a><!--class Profile--><a href="#rocrate_validator.models.Profile" target="_top" title="#rocrate_validator.models.Profile" xlink:actuate="onRequest" xlink:href="#rocrate_validator.models.Profile" xlink:show="new" xlink:title="#rocrate_validator.models.Profile" xlink:type="simple"><g id="elem_Profile"><rect codeLine="21" fill="#F1F1F1" height="32" id="Profile" rx="2.5" ry="2.5" style="stroke:#181818;stroke-width:0.5;" width="76.085" x="436.96" y="219.59"/><ellipse cx="451.96" cy="235.59" fill="#ADD1B2" rx="11" ry="11" style="stroke:#181818;stroke-width:1;"/><path d="M451.4288,242.5119 Q449.6788,242.5119 448.5381,241.7775 Q447.4131,241.0275 446.8506,239.6837 Q446.3038,238.3244 446.3038,236.5275 Q446.3038,234.4962 446.96,233.0431 Q447.6163,231.59 448.8975,230.8087 Q450.1788,230.0275 452.0538,230.0275 Q452.9444,230.0275 453.6163,230.215 Q454.2881,230.3869 454.9756,230.7306 L454.1631,232.7462 Q453.5381,232.4337 452.9913,232.3087 Q452.46,232.1837 451.9756,232.1837 Q450.8038,232.1837 450.1006,232.715 Q449.3975,233.2462 449.1006,234.1994 Q448.8038,235.1525 448.8038,236.4181 Q448.8038,238.4337 449.5225,239.4025 Q450.2413,240.3556 451.835,240.3556 Q452.4288,240.3556 453.0538,240.1994 Q453.6788,240.0431 454.5069,239.6681 L454.5069,241.8869 Q453.7725,242.1994 452.9756,242.3556 Q452.1944,242.5119 451.4288,242.5119 Z " fill="#000000"/><text fill="#000000" font-family="sans-serif" font-size="14" lengthAdjust="spacing" textLength="44.085" x="465.96" y="240.4367">Profile</text></g></a><!--class Severity--><a href="#rocrate_validator.models.Severity" target="_top" title="#rocrate_validator.models.Severity" xlink:actuate="onRequest" xlink:href="#rocrate_validator.models.Severity" xlink:show="new" xlink:title="#rocrate_validator.models.Severity" xlink:type="simple"><g id="elem_Severity"><rect codeLine="23" fill="#F1F1F1" height="32" id="Severity" rx="2.5" ry="2.5" style="stroke:#181818;stroke-width:0.5;" width="89.8184" x="548.09" y="219.59"/><ellipse cx="563.09" cy="235.59" fill="#ADD1B2" rx="11" ry="11" style="stroke:#181818;stroke-width:1;"/><path d="M562.5588,242.5119 Q560.8088,242.5119 559.6681,241.7775 Q558.5431,241.0275 557.9806,239.6837 Q557.4338,238.3244 557.4338,236.5275 Q557.4338,234.4962 558.09,233.0431 Q558.7463,231.59 560.0275,230.8087 Q561.3088,230.0275 563.1838,230.0275 Q564.0744,230.0275 564.7463,230.215 Q565.4181,230.3869 566.1056,230.7306 L565.2931,232.7462 Q564.6681,232.4337 564.1213,232.3087 Q563.59,232.1837 563.1056,232.1837 Q561.9338,232.1837 561.2306,232.715 Q560.5275,233.2462 560.2306,234.1994 Q559.9338,235.1525 559.9338,236.4181 Q559.9338,238.4337 560.6525,239.4025 Q561.3713,240.3556 562.965,240.3556 Q563.5588,240.3556 564.1838,240.1994 Q564.8088,240.0431 565.6369,239.6681 L565.6369,241.8869 Q564.9025,242.1994 564.1056,242.3556 Q563.3244,242.5119 562.5588,242.5119 Z " fill="#000000"/><text fill="#000000" font-family="sans-serif" font-size="14" lengthAdjust="spacing" textLength="57.8184" x="577.09" y="240.4367">Severity</text></g></a><!--link services to Profile--><g id="link_services_Profile"><path codeLine="15" d="M488.35,121.97 C480.85,130.9 474.18,140.91 470,151.59 C461.27,173.91 464.4729,196.3672 468.8529,213.4872 " fill="none" id="services-to-Profile" style="stroke:#181818;stroke-width:1;stroke-dasharray:7.0,7.0;"/><polygon fill="#181818" points="470.34,219.3,471.9845,209.5894,469.1007,214.456,464.2341,211.5723,470.34,219.3" style="stroke:#181818;stroke-width:1;"/><text fill="#000000" font-family="sans-serif" font-size="13" lengthAdjust="spacing" textLength="76.4702" x="475.1323" y="164.6569">instantiates</text></g><!--link services to Severity--><g id="link_services_Severity"><path codeLine="16" d="M549.35,121.91 C561.71,153.81 576.2422,191.3353 584.9722,213.8653 " fill="none" id="services-to-Severity" style="stroke:#181818;stroke-width:1;stroke-dasharray:7.0,7.0;"/><polygon fill="#181818" points="587.14,219.46,587.618,209.6227,585.3335,214.7978,580.1584,212.5132,587.14,219.46" style="stroke:#181818;stroke-width:1;"/><text fill="#000000" font-family="sans-serif" font-size="13" lengthAdjust="spacing" textLength="37.0132" x="572.1623" y="164.6569">filters</text></g><!--SRC=[bPB1JeH038RlynGD7jIuyW0SF7bt4u-4a74eI-F0aEa4OmplRWK6YRlhPkT2IlzsldR-XYg45jitzAoQdw0cj1KhTGlFM5E741e4HZ-GGGRgfjWuZz1hywuFg9Ol9DuPhmEMWxPKwU1y0bzAWHpg0lfQcqsdFByvqgSncnumbBrtDLdaef0si9m7sAJkegJiTMWoUEa3kKxRV2zXiOCbNSfSNI2Pp6V0mU-4Oa1FuJE3OuRMLMWvVLqaz_3uT5wrdsyuZSUN-Ax5iCGXlyHIJ33Zl7XktCVlpkD3pwduDqql3mWP9FAA7BGiKeISND4ZpZ0raMxY1QaNmlFEMKfN0nchcI72dFJEdos8QSPjxGhnNt4KhPORrJS0]--></g></svg>