<svg xmlns="http://www.w3.org/2000/svg" xmlns:xlink="http://www.w3.org/1999/xlink" contentStyleType="text/css" height="916px" preserveAspectRatio="none" style="width:708px;height:916px;background:#FFFFFF;" version="1.1" viewBox="0 0 708 916" width="708px" zoomAndPan="magnify"><defs/><g><!--cluster rocrate_validator--><g id="cluster_rocrate_validator"><path d="M8.5,6 L144.7148,6 A3.75,3.75 0 0 1 147.2148,8.5 L154.2148,28.2969 L698.5,28.2969 A2.5,2.5 0 0 1 701,30.7969 L701,685.98 A2.5,2.5 0 0 1 698.5,688.48 L8.5,688.48 A2.5,2.5 0 0 1 6,685.98 L6,8.5 A2.5,2.5 0 0 1 8.5,6 " fill="none" style="stroke:#000000;stroke-width:1.5;"/><line style="stroke:#000000;stroke-width:1.5;" x1="6" x2="154.2148" y1="28.2969" y2="28.2969"/><text fill="#000000" font-family="sans-serif" font-size="14" font-weight="bold" lengthAdjust="spacing" textLength="135.2148" x="10" y="20.9951">rocrate_validator</text></g><!--cluster models--><g id="cluster_models"><path d="M32.5,49 L90.3545,49 A3.75,3.75 0 0 1 92.8545,51.5 L99.8545,71.2969 L528.5,71.2969 A2.5,2.5 0 0 1 531,73.7969 L531,661.98 A2.5,2.5 0 0 1 528.5,664.48 L32.5,664.48 A2.5,2.5 0 0 1 30,661.98 L30,51.5 A2.5,2.5 0 0 1 32.5,49 " fill="none" style="stroke:#000000;stroke-width:1.5;"/><line style="stroke:#000000;stroke-width:1.5;" x1="30" x2="99.8545" y1="71.2969" y2="71.2969"/><text fill="#000000" font-family="sans-serif" font-size="14" font-weight="bold" lengthAdjust="spacing" textLength="56.8545" x="34" y="63.9951">models</text></g><!--cluster rocrate--><g id="cluster_rocrate"><path d="M557.5,363.03 L615.8604,363.03 A3.75,3.75 0 0 1 618.3604,365.53 L625.3604,385.3269 L674.5,385.3269 A2.5,2.5 0 0 1 677,387.8269 L677,443.53 A2.5,2.5 0 0 1 674.5,446.03 L557.5,446.03 A2.5,2.5 0 0 1 555,443.53 L555,365.53 A2.5,2.5 0 0 1 557.5,363.03 " fill="none" style="stroke:#000000;stroke-width:1.5;"/><line style="stroke:#000000;stroke-width:1.5;" x1="555" x2="625.3604" y1="385.3269" y2="385.3269"/><text fill="#000000" font-family="sans-serif" font-size="14" font-weight="bold" lengthAdjust="spacing" textLength="57.3604" x="559" y="378.0251">rocrate</text></g><!--class Severity--><a href="#rocrate_validator.models.Severity" target="_top" title="#rocrate_validator.models.Severity" xlink:actuate="onRequest" xlink:href="#rocrate_validator.models.Severity" xlink:show="new" xlink:title="#rocrate_validator.models.Severity" xlink:type="simple"><g id="elem_Severity"><rect codeLine="30" fill="#F1F1F1" height="96.8906" id="Severity" rx="2.5" ry="2.5" style="stroke:#181818;stroke-width:0.5;" width="125.251" x="46.37" y="365.59"/><ellipse cx="77.3147" cy="381.59" fill="#EB937F" rx="11" ry="11" style="stroke:#181818;stroke-width:1;"/><path d="M73.6741,388.09 L73.6741,375.9494 L81.3303,375.9494 L81.3303,378.0744 L76.0491,378.0744 L76.0491,380.7306 L81.0647,380.7306 L81.0647,382.8556 L76.0491,382.8556 L76.0491,385.965 L81.3303,385.965 L81.3303,388.09 L73.6741,388.09 Z " fill="#000000"/><text fill="#000000" font-family="sans-serif" font-size="14" lengthAdjust="spacing" textLength="57.8184" x="94.8579" y="386.4367">Severity</text><line style="stroke:#181818;stroke-width:0.5;" x1="47.37" x2="170.621" y1="397.59" y2="397.59"/><text fill="#000000" font-family="sans-serif" font-size="14" lengthAdjust="spacing" textLength="71.0117" x="52.37" y="414.5851">OPTIONAL</text><text fill="#000000" font-family="sans-serif" font-size="14" lengthAdjust="spacing" textLength="113.251" x="52.37" y="430.882">RECOMMENDED</text><text fill="#000000" font-family="sans-serif" font-size="14" lengthAdjust="spacing" textLength="73.3223" x="52.37" y="447.1789">REQUIRED</text><line style="stroke:#181818;stroke-width:0.5;" x1="47.37" x2="170.621" y1="454.4806" y2="454.4806"/></g></a><!--class RequirementLevel--><a href="#rocrate_validator.models.RequirementLevel" target="_top" title="#rocrate_validator.models.RequirementLevel" xlink:actuate="onRequest" xlink:href="#rocrate_validator.models.RequirementLevel" xlink:show="new" xlink:title="#rocrate_validator.models.RequirementLevel" xlink:type="simple"><g id="elem_RequirementLevel"><rect codeLine="39" fill="#F1F1F1" height="80.5938" id="RequirementLevel" rx="2.5" ry="2.5" style="stroke:#181818;stroke-width:0.5;" width="160.1738" x="45.91" y="193"/><ellipse cx="60.91" cy="209" fill="#ADD1B2" rx="11" ry="11" style="stroke:#181818;stroke-width:1;"/><path d="M60.3788,215.9219 Q58.6288,215.9219 57.4881,215.1875 Q56.3631,214.4375 55.8006,213.0938 Q55.2538,211.7344 55.2538,209.9375 Q55.2538,207.9063 55.91,206.4531 Q56.5663,205 57.8475,204.2188 Q59.1288,203.4375 61.0038,203.4375 Q61.8944,203.4375 62.5663,203.625 Q63.2381,203.7969 63.9256,204.1406 L63.1131,206.1563 Q62.4881,205.8438 61.9413,205.7188 Q61.41,205.5938 60.9256,205.5938 Q59.7538,205.5938 59.0506,206.125 Q58.3475,206.6563 58.0506,207.6094 Q57.7538,208.5625 57.7538,209.8281 Q57.7538,211.8438 58.4725,212.8125 Q59.1913,213.7656 60.785,213.7656 Q61.3788,213.7656 62.0038,213.6094 Q62.6288,213.4531 63.4569,213.0781 L63.4569,215.2969 Q62.7225,215.6094 61.9256,215.7656 Q61.1444,215.9219 60.3788,215.9219 Z " fill="#000000"/><text fill="#000000" font-family="sans-serif" font-size="14" lengthAdjust="spacing" textLength="128.1738" x="74.91" y="213.8467">RequirementLevel</text><line style="stroke:#181818;stroke-width:0.5;" x1="46.91" x2="205.0838" y1="225" y2="225"/><ellipse cx="56.91" cy="238.6484" fill="none" rx="3" ry="3" style="stroke:#038048;stroke-width:1;"/><text fill="#000000" font-family="sans-serif" font-size="14" lengthAdjust="spacing" textLength="44.4199" x="65.91" y="241.9951">name:</text><text fill="#000000" font-family="sans-serif" font-size="14" lengthAdjust="spacing" textLength="4.4502" x="110.3299" y="241.9951">&#160;</text><text fill="#000000" font-family="sans-serif" font-size="14" lengthAdjust="spacing" textLength="18.5391" x="114.7801" y="241.9951">str</text><ellipse cx="56.91" cy="254.9453" fill="none" rx="3" ry="3" style="stroke:#038048;stroke-width:1;"/><text fill="#000000" font-family="sans-serif" font-size="14" lengthAdjust="spacing" textLength="60.9424" x="65.91" y="258.292">severity:</text><text fill="#000000" font-family="sans-serif" font-size="14" lengthAdjust="spacing" textLength="4.4502" x="126.8524" y="258.292">&#160;</text><text fill="#000000" font-family="sans-serif" font-size="14" lengthAdjust="spacing" textLength="57.8184" x="131.3026" y="258.292">Severity</text><line style="stroke:#181818;stroke-width:0.5;" x1="46.91" x2="205.0838" y1="265.5938" y2="265.5938"/></g></a><!--class LevelCollection--><a href="#rocrate_validator.models.LevelCollection" target="_top" title="#rocrate_validator.models.LevelCollection" xlink:actuate="onRequest" xlink:href="#rocrate_validator.models.LevelCollection" xlink:show="new" xlink:title="#rocrate_validator.models.LevelCollection" xlink:type="simple"><g id="elem_LevelCollection"><rect codeLine="49" fill="#F1F1F1" height="32" id="LevelCollection" rx="2.5" ry="2.5" style="stroke:#181818;stroke-width:0.5;" width="138.4492" x="45.78" y="84"/><ellipse cx="60.78" cy="100" fill="#ADD1B2" rx="11" ry="11" style="stroke:#181818;stroke-width:1;"/><path d="M60.2488,106.9219 Q58.4988,106.9219 57.3581,106.1875 Q56.2331,105.4375 55.6706,104.0938 Q55.1238,102.7344 55.1238,100.9375 Q55.1238,98.9063 55.78,97.4531 Q56.4363,96 57.7175,95.2188 Q58.9988,94.4375 60.8738,94.4375 Q61.7644,94.4375 62.4363,94.625 Q63.1081,94.7969 63.7956,95.1406 L62.9831,97.1563 Q62.3581,96.8438 61.8113,96.7188 Q61.28,96.5938 60.7956,96.5938 Q59.6238,96.5938 58.9206,97.125 Q58.2175,97.6563 57.9206,98.6094 Q57.6238,99.5625 57.6238,100.8281 Q57.6238,102.8438 58.3425,103.8125 Q59.0613,104.7656 60.655,104.7656 Q61.2488,104.7656 61.8738,104.6094 Q62.4988,104.4531 63.3269,104.0781 L63.3269,106.2969 Q62.5925,106.6094 61.7956,106.7656 Q61.0144,106.9219 60.2488,106.9219 Z " fill="#000000"/><text fill="#000000" font-family="sans-serif" font-size="14" lengthAdjust="spacing" textLength="106.4492" x="74.78" y="104.8467">LevelCollection</text></g></a><!--class Profile--><a href="#rocrate_validator.models.Profile" target="_top" title="#rocrate_validator.models.Profile" xlink:actuate="onRequest" xlink:href="#rocrate_validator.models.Profile" xlink:show="new" xlink:title="#rocrate_validator.models.Profile" xlink:type="simple"><g id="elem_Profile"><rect codeLine="69" fill="#F1F1F1" height="32" id="Profile" rx="2.5" ry="2.5" style="stroke:#181818;stroke-width:0.5;" width="76.085" x="243.96" y="398.03"/><ellipse cx="258.96" cy="414.03" fill="#ADD1B2" rx="11" ry="11" style="stroke:#181818;stroke-width:1;"/><path d="M258.4288,420.9519 Q256.6788,420.9519 255.5381,420.2175 Q254.4131,419.4675 253.8506,418.1238 Q253.3038,416.7644 253.3038,414.9675 Q253.3038,412.9363 253.96,411.4831 Q254.6163,410.03 255.8975,409.2488 Q257.1788,408.4675 259.0538,408.4675 Q259.9444,408.4675 260.6163,408.655 Q261.2881,408.8269 261.9756,409.1706 L261.1631,411.1863 Q260.5381,410.8738 259.9913,410.7488 Q259.46,410.6238 258.9756,410.6238 Q257.8038,410.6238 257.1006,411.155 Q256.3975,411.6863 256.1006,412.6394 Q255.8038,413.5925 255.8038,414.8581 Q255.8038,416.8738 256.5225,417.8425 Q257.2413,418.7956 258.835,418.7956 Q259.4288,418.7956 260.0538,418.6394 Q260.6788,418.4831 261.5069,418.1081 L261.5069,420.3269 Q260.7725,420.6394 259.9756,420.7956 Q259.1944,420.9519 258.4288,420.9519 Z " fill="#000000"/><text fill="#000000" font-family="sans-serif" font-size="14" lengthAdjust="spacing" textLength="44.085" x="272.96" y="418.8767">Profile</text></g></a><!--class Requirement--><a href="#rocrate_validator.models.Requirement" target="_top" title="#rocrate_validator.models.Requirement" xlink:actuate="onRequest" xlink:href="#rocrate_validator.models.Requirement" xlink:show="new" xlink:title="#rocrate_validator.models.Requirement" xlink:type="simple"><g id="elem_Requirement"><rect codeLine="93" fill="#F1F1F1" height="32" id="Requirement" rx="2.5" ry="2.5" style="stroke:#181818;stroke-width:0.5;" width="122.9727" x="243.51" y="523.48"/><ellipse cx="258.51" cy="539.48" fill="#A9DCDF" rx="11" ry="11" style="stroke:#181818;stroke-width:1;"/><path d="M253.6819,545.23 L257.0256,533.0425 L260.1663,533.0425 L263.5413,545.23 L261.0725,545.23 L260.3381,542.2144 L256.8225,542.2144 L256.0725,545.23 L253.6819,545.23 Z M258.0881,537.1831 L257.3381,540.1831 L259.8538,540.1831 L259.135,537.1831 Q258.9944,536.605 258.8694,536.0581 Q258.7444,535.4956 258.6038,534.9175 Q258.4944,535.4956 258.3538,536.0581 Q258.2131,536.605 258.0881,537.1831 Z " fill="#000000"/><text fill="#000000" font-family="sans-serif" font-size="14" font-style="italic" lengthAdjust="spacing" textLength="90.9727" x="272.51" y="544.3267">Requirement</text></g></a><!--class RequirementCheck--><a href="#rocrate_validator.models.RequirementCheck" target="_top" title="#rocrate_validator.models.RequirementCheck" xlink:actuate="onRequest" xlink:href="#rocrate_validator.models.RequirementCheck" xlink:show="new" xlink:title="#rocrate_validator.models.RequirementCheck" xlink:type="simple"><g id="elem_RequirementCheck"><rect codeLine="110" fill="#F1F1F1" height="32" id="RequirementCheck" rx="2.5" ry="2.5" style="stroke:#181818;stroke-width:0.5;" width="166.0391" x="150.98" y="616.48"/><ellipse cx="165.98" cy="632.48" fill="#A9DCDF" rx="11" ry="11" style="stroke:#181818;stroke-width:1;"/><path d="M161.1519,638.23 L164.4956,626.0425 L167.6363,626.0425 L171.0113,638.23 L168.5425,638.23 L167.8081,635.2144 L164.2925,635.2144 L163.5425,638.23 L161.1519,638.23 Z M165.5581,630.1831 L164.8081,633.1831 L167.3238,633.1831 L166.605,630.1831 Q166.4644,629.605 166.3394,629.0581 Q166.2144,628.4956 166.0738,627.9175 Q165.9644,628.4956 165.8238,629.0581 Q165.6831,629.605 165.5581,630.1831 Z " fill="#000000"/><text fill="#000000" font-family="sans-serif" font-size="14" font-style="italic" lengthAdjust="spacing" textLength="134.0391" x="179.98" y="637.3267">RequirementCheck</text></g></a><!--class ValidationSettings--><a href="#rocrate_validator.models.ValidationSettings" target="_top" title="#rocrate_validator.models.ValidationSettings" xlink:actuate="onRequest" xlink:href="#rocrate_validator.models.ValidationSettings" xlink:show="new" xlink:title="#rocrate_validator.models.ValidationSettings" xlink:type="simple"><g id="elem_ValidationSettings"><rect codeLine="126" fill="#F1F1F1" height="32" id="ValidationSettings" rx="2.5" ry="2.5" style="stroke:#181818;stroke-width:0.5;" width="159.6406" x="355.18" y="398.03"/><ellipse cx="370.18" cy="414.03" fill="#ADD1B2" rx="11" ry="11" style="stroke:#181818;stroke-width:1;"/><path d="M369.6488,420.9519 Q367.8988,420.9519 366.7581,420.2175 Q365.6331,419.4675 365.0706,418.1238 Q364.5238,416.7644 364.5238,414.9675 Q364.5238,412.9363 365.18,411.4831 Q365.8363,410.03 367.1175,409.2488 Q368.3988,408.4675 370.2738,408.4675 Q371.1644,408.4675 371.8363,408.655 Q372.5081,408.8269 373.1956,409.1706 L372.3831,411.1863 Q371.7581,410.8738 371.2113,410.7488 Q370.68,410.6238 370.1956,410.6238 Q369.0238,410.6238 368.3206,411.155 Q367.6175,411.6863 367.3206,412.6394 Q367.0238,413.5925 367.0238,414.8581 Q367.0238,416.8738 367.7425,417.8425 Q368.4613,418.7956 370.055,418.7956 Q370.6488,418.7956 371.2738,418.6394 Q371.8988,418.4831 372.7269,418.1081 L372.7269,420.3269 Q371.9925,420.6394 371.1956,420.7956 Q370.4144,420.9519 369.6488,420.9519 Z " fill="#000000"/><text fill="#000000" font-family="sans-serif" font-size="14" lengthAdjust="spacing" textLength="127.6406" x="384.18" y="418.8767">ValidationSettings</text></g></a><!--class ValidationContext--><a href="#rocrate_validator.models.ValidationContext" target="_top" title="#rocrate_validator.models.ValidationContext" xlink:actuate="onRequest" xlink:href="#rocrate_validator.models.ValidationContext" xlink:show="new" xlink:title="#rocrate_validator.models.ValidationContext" xlink:type="simple"><g id="elem_ValidationContext"><rect codeLine="129" fill="#F1F1F1" height="32" id="ValidationContext" rx="2.5" ry="2.5" style="stroke:#181818;stroke-width:0.5;" width="157.3096" x="348.35" y="217.29"/><ellipse cx="363.35" cy="233.29" fill="#ADD1B2" rx="11" ry="11" style="stroke:#181818;stroke-width:1;"/><path d="M362.8188,240.2119 Q361.0688,240.2119 359.9281,239.4775 Q358.8031,238.7275 358.2406,237.3838 Q357.6938,236.0244 357.6938,234.2275 Q357.6938,232.1963 358.35,230.7431 Q359.0063,229.29 360.2875,228.5088 Q361.5688,227.7275 363.4438,227.7275 Q364.3344,227.7275 365.0063,227.915 Q365.6781,228.0869 366.3656,228.4306 L365.5531,230.4463 Q364.9281,230.1338 364.3813,230.0088 Q363.85,229.8838 363.3656,229.8838 Q362.1938,229.8838 361.4906,230.415 Q360.7875,230.9463 360.4906,231.8994 Q360.1938,232.8525 360.1938,234.1181 Q360.1938,236.1338 360.9125,237.1025 Q361.6313,238.0556 363.225,238.0556 Q363.8188,238.0556 364.4438,237.8994 Q365.0688,237.7431 365.8969,237.3681 L365.8969,239.5869 Q365.1625,239.8994 364.3656,240.0556 Q363.5844,240.2119 362.8188,240.2119 Z " fill="#000000"/><text fill="#000000" font-family="sans-serif" font-size="14" lengthAdjust="spacing" textLength="125.3096" x="377.35" y="238.1367">ValidationContext</text></g></a><!--class ValidationResult--><a href="#rocrate_validator.models.ValidationResult" target="_top" title="#rocrate_validator.models.ValidationResult" xlink:actuate="onRequest" xlink:href="#rocrate_validator.models.ValidationResult" xlink:show="new" xlink:title="#rocrate_validator.models.ValidationResult" xlink:type="simple"><g id="elem_ValidationResult"><rect codeLine="145" fill="#F1F1F1" height="32" id="ValidationResult" rx="2.5" ry="2.5" style="stroke:#181818;stroke-width:0.5;" width="146.1055" x="218.95" y="84"/><ellipse cx="233.95" cy="100" fill="#ADD1B2" rx="11" ry="11" style="stroke:#181818;stroke-width:1;"/><path d="M233.4188,106.9219 Q231.6688,106.9219 230.5281,106.1875 Q229.4031,105.4375 228.8406,104.0938 Q228.2938,102.7344 228.2938,100.9375 Q228.2938,98.9063 228.95,97.4531 Q229.6063,96 230.8875,95.2188 Q232.1688,94.4375 234.0438,94.4375 Q234.9344,94.4375 235.6063,94.625 Q236.2781,94.7969 236.9656,95.1406 L236.1531,97.1563 Q235.5281,96.8438 234.9813,96.7188 Q234.45,96.5938 233.9656,96.5938 Q232.7938,96.5938 232.0906,97.125 Q231.3875,97.6563 231.0906,98.6094 Q230.7938,99.5625 230.7938,100.8281 Q230.7938,102.8438 231.5125,103.8125 Q232.2313,104.7656 233.825,104.7656 Q234.4188,104.7656 235.0438,104.6094 Q235.6688,104.4531 236.4969,104.0781 L236.4969,106.2969 Q235.7625,106.6094 234.9656,106.7656 Q234.1844,106.9219 233.4188,106.9219 Z " fill="#000000"/><text fill="#000000" font-family="sans-serif" font-size="14" lengthAdjust="spacing" textLength="114.1055" x="247.95" y="104.8467">ValidationResult</text></g></a><!--class CheckIssue--><a href="#rocrate_validator.models.CheckIssue" target="_top" title="#rocrate_validator.models.CheckIssue" xlink:actuate="onRequest" xlink:href="#rocrate_validator.models.CheckIssue" xlink:show="new" xlink:title="#rocrate_validator.models.CheckIssue" xlink:type="simple"><g id="elem_CheckIssue"><rect codeLine="173" fill="#F1F1F1" height="32" id="CheckIssue" rx="2.5" ry="2.5" style="stroke:#181818;stroke-width:0.5;" width="111.2695" x="164.37" y="303.59"/><ellipse cx="179.37" cy="319.59" fill="#ADD1B2" rx="11" ry="11" style="stroke:#181818;stroke-width:1;"/><path d="M178.8388,326.5119 Q177.0888,326.5119 175.9481,325.7775 Q174.8231,325.0275 174.2606,323.6838 Q173.7138,322.3244 173.7138,320.5275 Q173.7138,318.4963 174.37,317.0431 Q175.0263,315.59 176.3075,314.8088 Q177.5888,314.0275 179.4638,314.0275 Q180.3544,314.0275 181.0263,314.215 Q181.6981,314.3869 182.3856,314.7306 L181.5731,316.7463 Q180.9481,316.4338 180.4013,316.3088 Q179.87,316.1838 179.3856,316.1838 Q178.2138,316.1838 177.5106,316.715 Q176.8075,317.2463 176.5106,318.1994 Q176.2138,319.1525 176.2138,320.4181 Q176.2138,322.4338 176.9325,323.4025 Q177.6513,324.3556 179.245,324.3556 Q179.8388,324.3556 180.4638,324.1994 Q181.0888,324.0431 181.9169,323.6681 L181.9169,325.8869 Q181.1825,326.1994 180.3856,326.3556 Q179.6044,326.5119 178.8388,326.5119 Z " fill="#000000"/><text fill="#000000" font-family="sans-serif" font-size="14" lengthAdjust="spacing" textLength="79.2695" x="193.37" y="324.4367">CheckIssue</text></g></a><!--class Validator--><a href="#rocrate_validator.models.Validator" target="_top" title="#rocrate_validator.models.Validator" xlink:actuate="onRequest" xlink:href="#rocrate_validator.models.Validator" xlink:show="new" xlink:title="#rocrate_validator.models.Validator" xlink:type="simple"><g id="elem_Validator"><rect codeLine="186" fill="#F1F1F1" height="32" id="Validator" rx="2.5" ry="2.5" style="stroke:#181818;stroke-width:0.5;" width="95.2119" x="400.39" y="84"/><ellipse cx="415.39" cy="100" fill="#ADD1B2" rx="11" ry="11" style="stroke:#181818;stroke-width:1;"/><path d="M414.8588,106.9219 Q413.1088,106.9219 411.9681,106.1875 Q410.8431,105.4375 410.2806,104.0938 Q409.7338,102.7344 409.7338,100.9375 Q409.7338,98.9063 410.39,97.4531 Q411.0463,96 412.3275,95.2188 Q413.6088,94.4375 415.4838,94.4375 Q416.3744,94.4375 417.0463,94.625 Q417.7181,94.7969 418.4056,95.1406 L417.5931,97.1563 Q416.9681,96.8438 416.4213,96.7188 Q415.89,96.5938 415.4056,96.5938 Q414.2338,96.5938 413.5306,97.125 Q412.8275,97.6563 412.5306,98.6094 Q412.2338,99.5625 412.2338,100.8281 Q412.2338,102.8438 412.9525,103.8125 Q413.6713,104.7656 415.265,104.7656 Q415.8588,104.7656 416.4838,104.6094 Q417.1088,104.4531 417.9369,104.0781 L417.9369,106.2969 Q417.2025,106.6094 416.4056,106.7656 Q415.6244,106.9219 414.8588,106.9219 Z " fill="#000000"/><text fill="#000000" font-family="sans-serif" font-size="14" lengthAdjust="spacing" textLength="63.2119" x="429.39" y="104.8467">Validator</text></g></a><!--class ROCrate--><a href="#rocrate_validator.rocrate.ROCrate" target="_top" title="#rocrate_validator.rocrate.ROCrate" xlink:actuate="onRequest" xlink:href="#rocrate_validator.rocrate.ROCrate" xlink:show="new" xlink:title="#rocrate_validator.rocrate.ROCrate" xlink:type="simple"><g id="elem_ROCrate"><rect codeLine="201" fill="#F1F1F1" height="32" id="ROCrate" rx="2.5" ry="2.5" style="stroke:#181818;stroke-width:0.5;" width="90.96" x="570.52" y="398.03"/><ellipse cx="585.52" cy="414.03" fill="#ADD1B2" rx="11" ry="11" style="stroke:#181818;stroke-width:1;"/><path d="M584.9888,420.9519 Q583.2388,420.9519 582.0981,420.2175 Q580.9731,419.4675 580.4106,418.1238 Q579.8638,416.7644 579.8638,414.9675 Q579.8638,412.9363 580.52,411.4831 Q581.1763,410.03 582.4575,409.2488 Q583.7388,408.4675 585.6138,408.4675 Q586.5044,408.4675 587.1763,408.655 Q587.8481,408.8269 588.5356,409.1706 L587.7231,411.1863 Q587.0981,410.8738 586.5513,410.7488 Q586.02,410.6238 585.5356,410.6238 Q584.3638,410.6238 583.6606,411.155 Q582.9575,411.6863 582.6606,412.6394 Q582.3638,413.5925 582.3638,414.8581 Q582.3638,416.8738 583.0825,417.8425 Q583.8013,418.7956 585.395,418.7956 Q585.9888,418.7956 586.6138,418.6394 Q587.2388,418.4831 588.0669,418.1081 L588.0669,420.3269 Q587.3325,420.6394 586.5356,420.7956 Q585.7544,420.9519 584.9888,420.9519 Z " fill="#000000"/><text fill="#000000" font-family="sans-serif" font-size="14" lengthAdjust="spacing" textLength="58.96" x="599.52" y="418.8767">ROCrate</text></g></a><!--link RequirementLevel to Severity--><g id="link_RequirementLevel_Severity"><path codeLine="44" d="M121.0908,285.9058 C118.5208,312.8558 116.8274,330.7169 114.1174,359.2469 " fill="none" id="RequirementLevel-Severity" style="stroke:#181818;stroke-width:1;"/><polygon fill="none" points="122.23,273.96,117.6785,279.5532,121.0908,285.9058,125.6423,280.3126,122.23,273.96" style="stroke:#181818;stroke-width:1;"/><polygon fill="#181818" points="113.55,365.22,118.3831,356.6386,114.0228,360.2424,110.419,355.8821,113.55,365.22" style="stroke:#181818;stroke-width:1;"/><text fill="#000000" font-family="sans-serif" font-size="13" lengthAdjust="spacing" textLength="8.271" x="101.3751" y="354.3769">1</text></g><!--link LevelCollection to RequirementLevel--><g id="link_LevelCollection_RequirementLevel"><path codeLine="66" d="M117.2824,128.2681 C118.8424,146.8781 120.0302,161.0109 122.1802,186.7309 " fill="none" id="LevelCollection-RequirementLevel" style="stroke:#181818;stroke-width:1;"/><polygon fill="none" points="116.28,116.31,112.7952,122.6232,117.2824,128.2681,120.7672,121.9549,116.28,116.31" style="stroke:#181818;stroke-width:1;"/><polygon fill="#181818" points="122.68,192.71,125.9164,183.4081,122.2635,187.7274,117.9442,184.0745,122.68,192.71" style="stroke:#181818;stroke-width:1;"/><text fill="#000000" font-family="sans-serif" font-size="13" lengthAdjust="spacing" textLength="6.5" x="115.6752" y="181.8235">*</text></g><!--reverse link Profile to Requirement--><g id="link_Profile_Requirement"><path codeLine="104" d="M287.0677,442.217 C291.4977,465.997 297.76,499.62 302.17,523.29 " fill="none" id="Profile-backto-Requirement" style="stroke:#181818;stroke-width:1;"/><polygon fill="#181818" points="284.87,430.42,282.0365,437.0511,287.0677,442.217,289.9012,435.586,284.87,430.42" style="stroke:#181818;stroke-width:1;"/><text fill="#000000" font-family="sans-serif" font-size="13" lengthAdjust="spacing" textLength="8.271" x="271.9358" y="450.123">1</text><text fill="#000000" font-family="sans-serif" font-size="13" lengthAdjust="spacing" textLength="27.168" x="265.1491" y="512.5316">1...*</text></g><!--reverse link Requirement to RequirementCheck--><g id="link_Requirement_RequirementCheck"><path codeLine="121" d="M285.5752,565.3786 C272.4352,582.2086 258.93,599.53 245.87,616.27 " fill="none" id="Requirement-backto-RequirementCheck" style="stroke:#181818;stroke-width:1;"/><polygon fill="#181818" points="292.96,555.92,286.1147,558.1877,285.5752,565.3786,292.4205,563.1109,292.96,555.92" style="stroke:#181818;stroke-width:1;"/><text fill="#000000" font-family="sans-serif" font-size="13" lengthAdjust="spacing" textLength="8.271" x="279.8916" y="575.6389">1</text><text fill="#000000" font-family="sans-serif" font-size="13" lengthAdjust="spacing" textLength="27.168" x="259.1185" y="605.505">1...*</text></g><!--link ValidationContext to ValidationSettings--><g id="link_ValidationContext_ValidationSettings"><path codeLine="136" d="M427.68,249.53 C429.19,283.22 432.5211,357.706 434.0411,391.586 " fill="none" id="ValidationContext-to-ValidationSettings" style="stroke:#181818;stroke-width:1;"/><polygon fill="#181818" points="434.31,397.58,437.9026,388.4098,434.0859,392.585,429.9106,388.7683,434.31,397.58" style="stroke:#181818;stroke-width:1;"/><text fill="#000000" font-family="sans-serif" font-size="13" lengthAdjust="spacing" textLength="8.271" x="420.2417" y="387.034">1</text></g><!--link ValidationContext to ROCrate--><g id="link_ValidationContext_ROCrate"><path codeLine="137" d="M443.11,249.53 C478.73,283.22 559.4704,359.5777 595.3004,393.4577 " fill="none" id="ValidationContext-to-ROCrate" style="stroke:#181818;stroke-width:1;stroke-dasharray:7.0,7.0;"/><polygon fill="#181818" points="599.66,397.58,595.8688,388.4901,596.027,394.1447,590.3723,394.3029,599.66,397.58" style="stroke:#181818;stroke-width:1;"/><text fill="#000000" font-family="sans-serif" font-size="13" lengthAdjust="spacing" textLength="76.4702" x="533.82" y="324.1569">instantiates</text><text fill="#000000" font-family="sans-serif" font-size="13" lengthAdjust="spacing" textLength="8.271" x="580.6034" y="387.034">1</text></g><!--link ValidationContext to Profile--><g id="link_ValidationContext_Profile"><path codeLine="138" d="M405.61,249.75 C388.46,262.83 364.45,282.73 347,303.59 C321.48,334.1 302.3216,370.4182 291.6516,392.4882 " fill="none" id="ValidationContext-to-Profile" style="stroke:#181818;stroke-width:1;stroke-dasharray:7.0,7.0;"/><polygon fill="#181818" points="289.04,397.89,296.5586,391.5283,291.2163,393.3885,289.3561,388.0462,289.04,397.89" style="stroke:#181818;stroke-width:1;"/><text fill="#000000" font-family="sans-serif" font-size="13" lengthAdjust="spacing" textLength="69.418" x="352.1323" y="324.1569">references</text><text fill="#000000" font-family="sans-serif" font-size="13" lengthAdjust="spacing" textLength="8.271" x="277.466" y="386.8535">1</text></g><!--link ValidationContext to ValidationResult--><g id="link_ValidationContext_ValidationResult"><path codeLine="139" d="M409.77,216.87 C394.4,203 371.4,181.95 352,163 C336.04,147.4 322.4543,133.3078 310.4443,120.6178 " fill="none" id="ValidationContext-to-ValidationResult" style="stroke:#181818;stroke-width:1;stroke-dasharray:7.0,7.0;"/><polygon fill="#181818" points="306.32,116.26,309.6012,125.5462,309.7569,119.8915,315.4116,120.0472,306.32,116.26" style="stroke:#181818;stroke-width:1;"/><text fill="#000000" font-family="sans-serif" font-size="13" lengthAdjust="spacing" textLength="76.4702" x="353" y="159.0669">instantiates</text><text fill="#000000" font-family="sans-serif" font-size="13" lengthAdjust="spacing" textLength="8.271" x="297.0354" y="135.9216">1</text></g><!--link ValidationResult to ValidationContext--><g id="link_ValidationResult_ValidationContext"><path codeLine="166" d="M298.25,116.24 C304.24,129.61 314.26,149.02 327,163 C347.49,185.47 371.3734,201.5908 392.8934,214.0108 " fill="none" id="ValidationResult-to-ValidationContext" style="stroke:#181818;stroke-width:1;"/><polygon fill="#181818" points="398.09,217.01,392.2945,209.0468,393.7595,214.5107,388.2956,215.9757,398.09,217.01" style="stroke:#181818;stroke-width:1;"/><text fill="#000000" font-family="sans-serif" font-size="13" lengthAdjust="spacing" textLength="8.271" x="379.2319" y="206.2218">1</text></g><!--link ValidationResult to CheckIssue--><g id="link_ValidationResult_CheckIssue"><path codeLine="167" d="M283.1701,127.6924 C269.9501,167.6424 240.1541,257.6735 226.9441,297.6135 " fill="none" id="ValidationResult-CheckIssue" style="stroke:#181818;stroke-width:1;"/><polygon fill="none" points="286.94,116.3,281.2576,120.7396,283.1701,127.6924,288.8525,123.2529,286.94,116.3" style="stroke:#181818;stroke-width:1;"/><polygon fill="#181818" points="225.06,303.31,231.6838,296.0213,226.6301,298.5629,224.0885,293.5092,225.06,303.31" style="stroke:#181818;stroke-width:1;"/><text fill="#000000" font-family="sans-serif" font-size="13" lengthAdjust="spacing" textLength="6.5" x="219.8236" y="292.5218">*</text></g><!--link CheckIssue to RequirementCheck--><g id="link_CheckIssue_RequirementCheck"><path codeLine="183" d="M219.97,336 C219.99,373.57 220.6,472.85 226,555.48 C227.37,576.53 229.3958,594.7951 231.2858,610.1251 " fill="none" id="CheckIssue-to-RequirementCheck" style="stroke:#181818;stroke-width:1;"/><polygon fill="#181818" points="232.02,616.08,234.8887,606.6582,231.4082,611.1176,226.9488,607.6371,232.02,616.08" style="stroke:#181818;stroke-width:1;"/><text fill="#000000" font-family="sans-serif" font-size="13" lengthAdjust="spacing" textLength="8.271" x="217.5408" y="605.5499">1</text></g><!--link Validator to ValidationContext--><g id="link_Validator_ValidationContext"><path codeLine="195" d="M445.55,116.31 C441.5,141.61 434.4187,185.9155 430.3787,211.1455 " fill="none" id="Validator-to-ValidationContext" style="stroke:#181818;stroke-width:1;stroke-dasharray:7.0,7.0;"/><polygon fill="#181818" points="429.43,217.07,434.8027,208.8157,430.2206,212.1329,426.9033,207.5508,429.43,217.07" style="stroke:#181818;stroke-width:1;"/><text fill="#000000" font-family="sans-serif" font-size="13" lengthAdjust="spacing" textLength="76.4702" x="445.7423" y="159.0669">instantiates</text><text fill="#000000" font-family="sans-serif" font-size="13" lengthAdjust="spacing" textLength="6.5" x="423.3224" y="206.3016">*</text></g><line style="stroke:none;stroke-width:1;" x1="62.4644" x2="264.4082" y1="703.6284" y2="703.6284"/><line style="stroke:none;stroke-width:1;" x1="62.4644" x2="264.4082" y1="705.6284" y2="705.6284"/><text fill="#000000" font-family="sans-serif" font-size="14" lengthAdjust="spacing" textLength="4.4502" x="264.4082" y="707.9751">&#160;</text><text fill="#000000" font-family="sans-serif" font-size="14" font-weight="bold" lengthAdjust="spacing" text-decoration="underline" textLength="160.7334" x="268.8584" y="707.9751">Core Model Diagram</text><line style="stroke:none;stroke-width:1;" x1="429.5918" x2="631.5356" y1="703.6284" y2="703.6284"/><line style="stroke:none;stroke-width:1;" x1="429.5918" x2="631.5356" y1="705.6284" y2="705.6284"/><text fill="#000000" font-family="sans-serif" font-size="14" lengthAdjust="spacing" textLength="358.1416" x="167.9292" y="724.772">UML class diagram of main validation components.</text><text fill="#000000" font-family="sans-serif" font-size="14" lengthAdjust="spacing" textLength="4.4502" x="344.7749" y="741.0689">&#160;</text><text fill="#000000" font-family="sans-serif" font-size="14" font-weight="bold" lengthAdjust="spacing" text-decoration="underline" textLength="63.5195" x="315.2402" y="757.3657">Legend:</text><text fill="#000000" font-family="sans-serif" font-size="14" font-weight="bold" lengthAdjust="spacing" textLength="10.2744" x="318.8633" y="773.6626">C</text><text fill="#000000" font-family="sans-serif" font-size="14" lengthAdjust="spacing" textLength="45.999" x="329.1377" y="773.6626">: Class</text><text fill="#000000" font-family="sans-serif" font-size="14" font-weight="bold" lengthAdjust="spacing" textLength="10.835" x="286.9736" y="789.9595">A</text><text fill="#000000" font-family="sans-serif" font-size="14" lengthAdjust="spacing" textLength="109.2178" x="297.8086" y="789.9595">: Abstract Class</text><text fill="#000000" font-family="sans-serif" font-size="14" font-weight="bold" lengthAdjust="spacing" textLength="5.209" x="308.4727" y="806.2564">I</text><text fill="#000000" font-family="sans-serif" font-size="14" lengthAdjust="spacing" textLength="71.8457" x="313.6816" y="806.2564">: Interface</text><text fill="#000000" font-family="sans-serif" font-size="14" font-weight="bold" lengthAdjust="spacing" textLength="9.5635" x="292.6372" y="822.5532">E</text><text fill="#000000" font-family="sans-serif" font-size="14" lengthAdjust="spacing" textLength="99.1621" x="302.2007" y="822.5532">: Enumeration</text><text fill="#000000" font-family="sans-serif" font-size="14" font-weight="bold" lengthAdjust="spacing" textLength="11.7305" x="62.4644" y="838.8501">&#8594;</text><text fill="#000000" font-family="sans-serif" font-size="14" lengthAdjust="spacing" textLength="552.8906" x="78.645" y="838.8501">: the source object contains a reference to the target object as part of its state</text><text fill="#000000" font-family="sans-serif" font-size="14" font-weight="bold" lengthAdjust="spacing" textLength="26.5508" x="104.5532" y="855.147">&#9830;&#8213;</text><text fill="#000000" font-family="sans-serif" font-size="14" lengthAdjust="spacing" textLength="449.4424" x="135.5542" y="855.147">: the source object contains the target object as part of its state</text><text fill="#000000" font-family="sans-serif" font-size="14" lengthAdjust="spacing" textLength="422.5156" x="135.7422" y="871.4439">and the target object cannot exist without the source object</text><text fill="#000000" font-family="sans-serif" font-size="14" font-weight="bold" lengthAdjust="spacing" textLength="24.2813" x="131.3159" y="887.7407">&#9826;&#10142;</text><text fill="#000000" font-family="sans-serif" font-size="14" lengthAdjust="spacing" textLength="402.6367" x="160.0474" y="887.7407">: the source object references one or more target objects</text><text fill="#000000" font-family="sans-serif" font-size="14" font-weight="bold" lengthAdjust="spacing" textLength="11.7305" x="194.0151" y="904.0376">&#8674;</text><text fill="#000000" font-family="sans-serif" font-size="14" lengthAdjust="spacing" textLength="289.7891" x="210.1958" y="904.0376">: the source object uses the target object</text><!--SRC=[nLZDRkCs4BxxAGZtK4URkDjB3qPYm70CR00dJlFJeWW2Wv5ecnjPT4awoM8HeAVsNg27NlQmXpvOdgH3Yf8eKfALROlwa5rplXdE_mmjxccomHolqIF7cnzf95VekxTlEvslqIYAK8Wtah849KmIqJ7VEWW-HqVeS3iCWZ7Z19soYCJecE8bI0g2ms-smwCZ3Ri-dQ8mnaAWAAKYja1hJ1FqW6CQOIqzPEiDIqWYHR-ZkRJaALcI91gaulGnt1O40pHMyip1I1sCxeJaE9GboecYd2IIy0KEYJcSgCD9ibqJZdDJWk3brz-300sGN14as9Q71B6xzmGaXYoHeAr0676o89maG9DC8oNcIo8p91O872cLVLGA92IMsQqlV_xryiiVksve9n9fcJY9Al0XJY1GY3nH8T4ZbIksbVwDkLAVNpvzgb4gjrKW20nY7ArLd4lNPOv- -UrpZPIj81LcTI2gMM9rLA8TamM5ImIHaYPBqLdHYA0rMTyHRhuiA8aZOM6Lq0qEx_6ITCo_gCjP254bSvDPZFVNAYz55ttKgke_9H6Nv85mAZyWugI4-bvGRsw-gfFTpq2tj-OMzPcTNvtCpaRJ_E1YCfwTdaxEZYV7rjdtroSNvk2vq52is6DnT-O7N_aBylEMShA6kfa2EaxhJEFIYlC0JNQuu98zRr22rsG06SYjCs5q7EJQkgPu6h23Wo7gVekwPPR2Re-ZtdvD7xCuXfpINSGntwKtMUzWIyP_L7L7msUmE8lhmDEp2dqw-gaTCCk4TkZBTxFhwQkmyxFPLLjDyZnjQUFrvLLxP7j5Bj-DfjDNG6iav_XIvk0uxkr1Pa63ZAeanj0_3rrPmvIjqcjkqaApw-KLi-TMXPkOQL44tHhrIwgVSxQWCV6IFJjlIdA3SIeR-ciYANHOxjRtbbFtgAeDH4I4dEfsxf8sMAxSCoXxKG6Lx9vuXx0OA6UunxpmanXuqHhQnWbZz6nXW22f3BZYE14K-7OWOH9Rzncm3H3qBbRpgnv1avNgUIGoj5gebLkGIlEx3_CYIZqdO7k3BFWDx13ANXRELWmgq5OAjrTKnx5NH7FtRPdVvXlZbLuOYtralkNiRNJG5Lg5UswUdrOvuMoNz6Pes_7Pkhw-g9ZEuUyNbGA3mkCqYbHSxXYBBPAAGhWYuRt8lMS96IlAi0fUIX2Nm-rwMOVIqpyuE83_zFlz09NQNW7NUv_j_MmHg26gNhvZIz9gjGfrYcmPRmt-hu9UisDvmHzuNdIZ3iNP8hO6JqGBB7aYuHQSa-Q2UiUG9r3aX_nXDqwFzX3CjppbgjT3o0QJ5KYdHRSwdogZdqQhAJyoX9KaQSmBNI_DwwCnwZvSnRsgkNXEy2QsZsXtiq4x2UTsIpjBKfa3U867qZ-VL_OL8yybMi7pzSztUzzDDHpzlk7mxJOd_OlPEDKUdiWIGr5XzKl43d7dcJUwrakskukh85qGiOsbSsUHMRuCB_cg87Kjohst8LKCe5scf60dKUhBrDxHSjeyUvKFwg9QwWMHcIC3zPflR1uB305g3nVtTBDv1PuAiSsRcAQUg1DtZAMmtfegGzrEg_jMWu0L5Yq4EBCMHr7Ar5iJ8V0o7GRxI1lcJz7zdDN-F50MOnM22IIdkd6cXmUERq3MxNv1XqBO4EuZcgLcN13nBN5OzqeRYH0aUeNn9kZsqjBJkE8rLBU-bFAbYQboNIbngpNLKg5NDqR_pKlcE8bo9zNUk8zg_DXI2ydcgicdxd7QFT3U2vQaj6p9CAFBQp1fA-_MD0aFdhzWYqAfR9S6_e-wPN65roSjKbE7B61ERxGhqcwPrQNPTakBrLE-uQUCDplAkGfOKzTDqAfYjdF0Sbu-o3sJQuSNutLJ2oWjnXNZ_yz2y_gXI7hkFclN15YhzucWedQGsaVibQBR0UPEqm_OvYJx1TiyLDALgDgjpjwKU_KPxleR]--></g></svg>