<svg xmlns="http://www.w3.org/2000/svg" xmlns:xlink="http://www.w3.org/1999/xlink" contentStyleType="text/css" height="581px" preserveAspectRatio="none" style="width:614px;height:581px;background:#FFFFFF;" version="1.1" viewBox="0 0 614 581" width="614px" zoomAndPan="magnify"><defs/><g><!--cluster rocrate_validator--><g id="cluster_rocrate_validator"><path d="M20.74,123.53 L156.9548,123.53 A3.75,3.75 0 0 1 159.4548,126.03 L166.4548,145.8269 L595.74,145.8269 A2.5,2.5 0 0 1 598.24,148.3269 L598.24,439.22 A2.5,2.5 0 0 1 595.74,441.72 L20.74,441.72 A2.5,2.5 0 0 1 18.24,439.22 L18.24,126.03 A2.5,2.5 0 0 1 20.74,123.53 " fill="none" style="stroke:#000000;stroke-width:1.5;"/><line style="stroke:#000000;stroke-width:1.5;" x1="18.24" x2="166.4548" y1="145.8269" y2="145.8269"/><text fill="#000000" font-family="sans-serif" font-size="14" font-weight="bold" lengthAdjust="spacing" textLength="135.2148" x="22.24" y="138.5251">rocrate_validator</text></g><!--cluster models--><g id="cluster_models"><path d="M197.74,334.72 L255.5945,334.72 A3.75,3.75 0 0 1 258.0945,337.22 L265.0945,357.0169 L425.74,357.0169 A2.5,2.5 0 0 1 428.24,359.5169 L428.24,415.22 A2.5,2.5 0 0 1 425.74,417.72 L197.74,417.72 A2.5,2.5 0 0 1 195.24,415.22 L195.24,337.22 A2.5,2.5 0 0 1 197.74,334.72 " fill="none" style="stroke:#000000;stroke-width:1.5;"/><line style="stroke:#000000;stroke-width:1.5;" x1="195.24" x2="265.0945" y1="357.0169" y2="357.0169"/><text fill="#000000" font-family="sans-serif" font-size="14" font-weight="bold" lengthAdjust="spacing" textLength="56.8545" x="199.24" y="349.7151">models</text></g><!--class services--><a href="#rocrate_validator.services.get_profiles" target="_top" title="#rocrate_validator.services.get_profiles" xlink:actuate="onRequest" xlink:href="#rocrate_validator.services.get_profiles" xlink:show="new" xlink:title="#rocrate_validator.services.get_profiles" xlink:type="simple"><g id="elem_services"><rect codeLine="10" fill="#F1F1F1" height="113.1875" id="services" rx="2.5" ry="2.5" style="stroke:#181818;stroke-width:0.5;" width="548.8604" x="33.81" y="158.53"/><ellipse cx="275.269" cy="174.53" fill="#B4A7E5" rx="11" ry="11" style="stroke:#181818;stroke-width:1;"/><path d="M271.3002,181.03 L271.3002,179.3269 L273.6596,179.0612 L273.6596,170.8581 L271.3002,170.5925 L271.3002,168.8894 L278.4409,168.8894 L278.4409,170.5925 L276.019,170.8581 L276.019,179.0612 L278.4409,179.3269 L278.4409,181.03 L271.3002,181.03 Z " fill="#000000"/><text fill="#000000" font-family="sans-serif" font-size="14" font-style="italic" lengthAdjust="spacing" textLength="57.4424" x="295.769" y="179.3767">services</text><line style="stroke:#181818;stroke-width:0.5;" x1="34.81" x2="581.6704" y1="190.53" y2="190.53"/><line style="stroke:#181818;stroke-width:0.5;" x1="34.81" x2="581.6704" y1="198.53" y2="198.53"/><ellipse cx="44.81" cy="220.3269" fill="#84BE84" rx="3" ry="3" style="stroke:#038048;stroke-width:1;"/><text fill="#000000" font-family="sans-serif" font-size="14" lengthAdjust="spacing" textLength="175.3486" x="53.81" y="215.5251">get_profile(profiles_path:</text><text fill="#000000" font-family="sans-serif" font-size="14" lengthAdjust="spacing" textLength="4.4502" x="229.1586" y="215.5251">&#160;</text><text fill="#000000" font-family="sans-serif" font-size="14" lengthAdjust="spacing" textLength="105.9502" x="233.6088" y="215.5251">Optional[Path],</text><text fill="#000000" font-family="sans-serif" font-size="14" lengthAdjust="spacing" textLength="4.4502" x="339.559" y="215.5251">&#160;</text><text fill="#000000" font-family="sans-serif" font-size="14" lengthAdjust="spacing" textLength="119.0752" x="344.0092" y="215.5251">profile_identifier:</text><text fill="#000000" font-family="sans-serif" font-size="14" lengthAdjust="spacing" textLength="4.4502" x="463.0844" y="215.5251">&#160;</text><text fill="#000000" font-family="sans-serif" font-size="14" lengthAdjust="spacing" textLength="22.9893" x="467.5346" y="215.5251">str,</text><text fill="#000000" font-family="sans-serif" font-size="14" lengthAdjust="spacing" textLength="4.4502" x="490.5239" y="215.5251">&#160;</text><text fill="#000000" font-family="sans-serif" font-size="14" lengthAdjust="spacing" textLength="60.9424" x="494.9741" y="215.5251">severity:</text><text fill="#000000" font-family="sans-serif" font-size="14" lengthAdjust="spacing" textLength="242.4434" x="53.81" y="231.822">rocrate_validator.models.Severity)</text><text fill="#000000" font-family="sans-serif" font-size="14" lengthAdjust="spacing" textLength="4.4502" x="296.2534" y="231.822">&#160;</text><text fill="#000000" font-family="sans-serif" font-size="14" lengthAdjust="spacing" textLength="16.7822" x="300.7036" y="231.822">-&gt;</text><text fill="#000000" font-family="sans-serif" font-size="14" lengthAdjust="spacing" textLength="4.4502" x="317.4858" y="231.822">&#160;</text><text fill="#000000" font-family="sans-serif" font-size="14" lengthAdjust="spacing" textLength="223.248" x="321.936" y="231.822">rocrate_validator.models.Profile</text><ellipse cx="44.81" cy="252.9206" fill="#84BE84" rx="3" ry="3" style="stroke:#038048;stroke-width:1;"/><text fill="#000000" font-family="sans-serif" font-size="14" lengthAdjust="spacing" textLength="182.6426" x="53.81" y="248.1189">get_profiles(profiles_path:</text><text fill="#000000" font-family="sans-serif" font-size="14" lengthAdjust="spacing" textLength="4.4502" x="236.4526" y="248.1189">&#160;</text><text fill="#000000" font-family="sans-serif" font-size="14" lengthAdjust="spacing" textLength="105.9502" x="240.9028" y="248.1189">Optional[Path],</text><text fill="#000000" font-family="sans-serif" font-size="14" lengthAdjust="spacing" textLength="4.4502" x="346.853" y="248.1189">&#160;</text><text fill="#000000" font-family="sans-serif" font-size="14" lengthAdjust="spacing" textLength="60.9424" x="351.3032" y="248.1189">severity:</text><text fill="#000000" font-family="sans-serif" font-size="14" lengthAdjust="spacing" textLength="242.4434" x="53.81" y="264.4157">rocrate_validator.models.Severity)</text><text fill="#000000" font-family="sans-serif" font-size="14" lengthAdjust="spacing" textLength="4.4502" x="296.2534" y="264.4157">&#160;</text><text fill="#000000" font-family="sans-serif" font-size="14" lengthAdjust="spacing" textLength="16.7822" x="300.7036" y="264.4157">-&gt;</text><text fill="#000000" font-family="sans-serif" font-size="14" lengthAdjust="spacing" textLength="4.4502" x="317.4858" y="264.4157">&#160;</text><text fill="#000000" font-family="sans-serif" font-size="14" lengthAdjust="spacing" textLength="254.7344" x="321.936" y="264.4157">list[rocrate_validator.models.Profile]</text></g></a><!--class Profile--><a href="#rocrate_validator.models.Profile" target="_top" title="#rocrate_validator.models.Profile" xlink:actuate="onRequest" xlink:href="#rocrate_validator.models.Profile" xlink:show="new" xlink:title="#rocrate_validator.models.Profile" xlink:type="simple"><g id="elem_Profile"><rect codeLine="30" fill="#F1F1F1" height="32" id="Profile" rx="2.5" ry="2.5" style="stroke:#181818;stroke-width:0.5;" width="76.085" x="211.2" y="369.72"/><ellipse cx="226.2" cy="385.72" fill="#ADD1B2" rx="11" ry="11" style="stroke:#181818;stroke-width:1;"/><path d="M225.6688,392.6419 Q223.9188,392.6419 222.7781,391.9075 Q221.6531,391.1575 221.0906,389.8138 Q220.5438,388.4544 220.5438,386.6575 Q220.5438,384.6263 221.2,383.1731 Q221.8563,381.72 223.1375,380.9388 Q224.4188,380.1575 226.2938,380.1575 Q227.1844,380.1575 227.8563,380.345 Q228.5281,380.5169 229.2156,380.8606 L228.4031,382.8763 Q227.7781,382.5638 227.2313,382.4388 Q226.7,382.3138 226.2156,382.3138 Q225.0438,382.3138 224.3406,382.845 Q223.6375,383.3763 223.3406,384.3294 Q223.0438,385.2825 223.0438,386.5481 Q223.0438,388.5638 223.7625,389.5325 Q224.4813,390.4856 226.075,390.4856 Q226.6688,390.4856 227.2938,390.3294 Q227.9188,390.1731 228.7469,389.7981 L228.7469,392.0169 Q228.0125,392.3294 227.2156,392.4856 Q226.4344,392.6419 225.6688,392.6419 Z " fill="#000000"/><text fill="#000000" font-family="sans-serif" font-size="14" lengthAdjust="spacing" textLength="44.085" x="240.2" y="390.5667">Profile</text></g></a><!--class Severity--><a href="#rocrate_validator.models.Severity" target="_top" title="#rocrate_validator.models.Severity" xlink:actuate="onRequest" xlink:href="#rocrate_validator.models.Severity" xlink:show="new" xlink:title="#rocrate_validator.models.Severity" xlink:type="simple"><g id="elem_Severity"><rect codeLine="32" fill="#F1F1F1" height="32" id="Severity" rx="2.5" ry="2.5" style="stroke:#181818;stroke-width:0.5;" width="89.8184" x="322.33" y="369.72"/><ellipse cx="337.33" cy="385.72" fill="#EB937F" rx="11" ry="11" style="stroke:#181818;stroke-width:1;"/><path d="M333.6894,392.22 L333.6894,380.0794 L341.3456,380.0794 L341.3456,382.2044 L336.0644,382.2044 L336.0644,384.8606 L341.08,384.8606 L341.08,386.9856 L336.0644,386.9856 L336.0644,390.095 L341.3456,390.095 L341.3456,392.22 L333.6894,392.22 Z " fill="#000000"/><text fill="#000000" font-family="sans-serif" font-size="14" lengthAdjust="spacing" textLength="57.8184" x="351.33" y="390.5667">Severity</text></g></a><g id="elem_GMN9"><path d="M171.29,6 L171.29,76.5313 A0,0 0 0 0 171.29,76.5313 L304.24,76.5313 L308.24,158.17 L312.24,76.5313 L445.187,76.5313 A0,0 0 0 0 445.187,76.5313 L445.187,16 L435.187,6 L171.29,6 A0,0 0 0 0 171.29,6 " fill="#FEFFDD" style="stroke:#181818;stroke-width:0.5;"/><path d="M435.187,6 L435.187,16 L445.187,16 L435.187,6 " fill="#FEFFDD" style="stroke:#181818;stroke-width:0.5;"/><text fill="#000000" font-family="sans-serif" font-size="13" font-weight="bold" lengthAdjust="spacing" textLength="4.8369" x="177.29" y="23.0669">I</text><text fill="#000000" font-family="sans-serif" font-size="13" lengthAdjust="spacing" textLength="4.1323" x="182.1269" y="23.0669">&#160;</text><text fill="#000000" font-family="sans-serif" font-size="13" lengthAdjust="spacing" textLength="10.8926" x="186.2592" y="23.0669">&#10144;</text><text fill="#000000" font-family="sans-serif" font-size="13" lengthAdjust="spacing" textLength="4.1323" x="197.1518" y="23.0669">&#160;</text><text fill="#000000" font-family="sans-serif" font-size="13" font-weight="bold" lengthAdjust="spacing" textLength="66.4854" x="201.2841" y="23.0669">Interface</text><text fill="#000000" font-family="sans-serif" font-size="13" lengthAdjust="spacing" textLength="24.7939" x="177.29" y="38.1997">&#160;&#160;&#160;&#160;&#160;&#160;</text><text fill="#000000" font-family="sans-serif" font-size="13" lengthAdjust="spacing" textLength="45.062" x="202.0839" y="38.1997">Python</text><text fill="#000000" font-family="sans-serif" font-size="13" lengthAdjust="spacing" textLength="4.1323" x="247.146" y="38.1997">&#160;</text><text fill="#000000" font-family="sans-serif" font-size="13" lengthAdjust="spacing" textLength="48.7183" x="251.2783" y="38.1997">module</text><text fill="#000000" font-family="sans-serif" font-size="13" lengthAdjust="spacing" textLength="4.1323" x="299.9965" y="38.1997">&#160;</text><text fill="#000000" font-family="sans-serif" font-size="13" lengthAdjust="spacing" textLength="26.3999" x="304.1289" y="38.1997">that</text><text fill="#000000" font-family="sans-serif" font-size="13" lengthAdjust="spacing" textLength="4.1323" x="330.5288" y="38.1997">&#160;</text><text fill="#000000" font-family="sans-serif" font-size="13" lengthAdjust="spacing" textLength="53.4409" x="334.6611" y="38.1997">exposes</text><text fill="#000000" font-family="sans-serif" font-size="13" lengthAdjust="spacing" textLength="24.7939" x="177.29" y="53.3325">&#160;&#160;&#160;&#160;&#160;&#160;</text><text fill="#000000" font-family="sans-serif" font-size="13" lengthAdjust="spacing" textLength="21.3345" x="202.0839" y="53.3325">the</text><text fill="#000000" font-family="sans-serif" font-size="13" lengthAdjust="spacing" textLength="4.1323" x="223.4184" y="53.3325">&#160;</text><text fill="#000000" font-family="sans-serif" font-size="13" lengthAdjust="spacing" textLength="32.481" x="227.5507" y="53.3325">main</text><text fill="#000000" font-family="sans-serif" font-size="13" lengthAdjust="spacing" textLength="4.1323" x="260.0317" y="53.3325">&#160;</text><text fill="#000000" font-family="sans-serif" font-size="13" lengthAdjust="spacing" textLength="64.0034" x="264.164" y="53.3325">validation</text><text fill="#000000" font-family="sans-serif" font-size="13" lengthAdjust="spacing" textLength="4.1323" x="328.1674" y="53.3325">&#160;</text><text fill="#000000" font-family="sans-serif" font-size="13" lengthAdjust="spacing" textLength="53.3394" x="332.2998" y="53.3325">services</text><text fill="#000000" font-family="sans-serif" font-size="13" lengthAdjust="spacing" textLength="24.7939" x="177.29" y="68.4653">&#160;&#160;&#160;&#160;&#160;&#160;</text><text fill="#000000" font-family="sans-serif" font-size="13" lengthAdjust="spacing" textLength="57.3574" x="202.0839" y="68.4653">provided</text><text fill="#000000" font-family="sans-serif" font-size="13" lengthAdjust="spacing" textLength="4.1323" x="259.4414" y="68.4653">&#160;</text><text fill="#000000" font-family="sans-serif" font-size="13" lengthAdjust="spacing" textLength="15.9453" x="263.5737" y="68.4653">by</text><text fill="#000000" font-family="sans-serif" font-size="13" lengthAdjust="spacing" textLength="4.1323" x="279.519" y="68.4653">&#160;</text><text fill="#000000" font-family="sans-serif" font-size="13" lengthAdjust="spacing" textLength="21.3345" x="283.6513" y="68.4653">the</text><text fill="#000000" font-family="sans-serif" font-size="13" lengthAdjust="spacing" textLength="4.1323" x="304.9858" y="68.4653">&#160;</text><text fill="#000000" font-family="sans-serif" font-size="13" lengthAdjust="spacing" textLength="59.4395" x="309.1181" y="68.4653">RO-Crate</text><text fill="#000000" font-family="sans-serif" font-size="13" lengthAdjust="spacing" textLength="4.1323" x="368.5576" y="68.4653">&#160;</text><text fill="#000000" font-family="sans-serif" font-size="13" lengthAdjust="spacing" textLength="57.4971" x="372.6899" y="68.4653">validator</text></g><g id="elem_GMN12"><path d="M6,496.28 L6,566.8113 A0,0 0 0 0 6,566.8113 L292.478,566.8113 A0,0 0 0 0 292.478,566.8113 L292.478,506.28 L282.478,496.28 L177.28,496.28 L238.54,402.11 L169.28,496.28 L6,496.28 A0,0 0 0 0 6,496.28 " fill="#FEFFDD" style="stroke:#181818;stroke-width:0.5;"/><path d="M282.478,496.28 L282.478,506.28 L292.478,506.28 L282.478,496.28 " fill="#FEFFDD" style="stroke:#181818;stroke-width:0.5;"/><text fill="#000000" font-family="sans-serif" font-size="13" font-weight="bold" lengthAdjust="spacing" textLength="9.5405" x="12" y="513.3469">C</text><text fill="#000000" font-family="sans-serif" font-size="13" lengthAdjust="spacing" textLength="4.1323" x="21.5405" y="513.3469">&#160;</text><text fill="#000000" font-family="sans-serif" font-size="13" lengthAdjust="spacing" textLength="10.8926" x="25.6729" y="513.3469">&#10144;</text><text fill="#000000" font-family="sans-serif" font-size="13" lengthAdjust="spacing" textLength="4.1323" x="36.5654" y="513.3469">&#160;</text><text fill="#000000" font-family="sans-serif" font-size="13" font-weight="bold" lengthAdjust="spacing" textLength="38.2446" x="40.6978" y="513.3469">Class</text><text fill="#000000" font-family="sans-serif" font-size="13" lengthAdjust="spacing" textLength="28.9263" x="12" y="528.4797">&#160;&#160;&#160;&#160;&#160;&#160;&#160;</text><text fill="#000000" font-family="sans-serif" font-size="13" lengthAdjust="spacing" textLength="24.1782" x="40.9263" y="528.4797">The</text><text fill="#000000" font-family="sans-serif" font-size="13" lengthAdjust="spacing" textLength="4.1323" x="65.1045" y="528.4797">&#160;</text><text fill="#000000" font-family="sans-serif" font-size="13" font-weight="bold" lengthAdjust="spacing" textLength="48.2549" x="69.2368" y="528.4797">Profile</text><text fill="#000000" font-family="sans-serif" font-size="13" lengthAdjust="spacing" textLength="4.1323" x="117.4917" y="528.4797">&#160;</text><text fill="#000000" font-family="sans-serif" font-size="13" lengthAdjust="spacing" textLength="32.2715" x="121.624" y="528.4797">class</text><text fill="#000000" font-family="sans-serif" font-size="13" lengthAdjust="spacing" textLength="4.1323" x="153.8955" y="528.4797">&#160;</text><text fill="#000000" font-family="sans-serif" font-size="13" lengthAdjust="spacing" textLength="69.8179" x="158.0278" y="528.4797">represents</text><text fill="#000000" font-family="sans-serif" font-size="13" lengthAdjust="spacing" textLength="4.1323" x="227.8457" y="528.4797">&#160;</text><text fill="#000000" font-family="sans-serif" font-size="13" lengthAdjust="spacing" textLength="7.9663" x="231.978" y="528.4797">a</text><text fill="#000000" font-family="sans-serif" font-size="13" lengthAdjust="spacing" textLength="28.9263" x="12" y="543.6125">&#160;&#160;&#160;&#160;&#160;&#160;&#160;</text><text fill="#000000" font-family="sans-serif" font-size="13" lengthAdjust="spacing" textLength="19.8682" x="40.9263" y="543.6125">set</text><text fill="#000000" font-family="sans-serif" font-size="13" lengthAdjust="spacing" textLength="4.1323" x="60.7944" y="543.6125">&#160;</text><text fill="#000000" font-family="sans-serif" font-size="13" lengthAdjust="spacing" textLength="12.5303" x="64.9268" y="543.6125">of</text><text fill="#000000" font-family="sans-serif" font-size="13" lengthAdjust="spacing" textLength="4.1323" x="77.457" y="543.6125">&#160;</text><text fill="#000000" font-family="sans-serif" font-size="13" lengthAdjust="spacing" textLength="87.5596" x="81.5894" y="543.6125">requirements</text><text fill="#000000" font-family="sans-serif" font-size="13" lengthAdjust="spacing" textLength="4.1323" x="169.1489" y="543.6125">&#160;</text><text fill="#000000" font-family="sans-serif" font-size="13" lengthAdjust="spacing" textLength="24.4575" x="173.2813" y="543.6125">and</text><text fill="#000000" font-family="sans-serif" font-size="13" lengthAdjust="spacing" textLength="4.1323" x="197.7388" y="543.6125">&#160;</text><text fill="#000000" font-family="sans-serif" font-size="13" lengthAdjust="spacing" textLength="44.8335" x="201.8711" y="543.6125">checks</text><text fill="#000000" font-family="sans-serif" font-size="13" lengthAdjust="spacing" textLength="4.1323" x="246.7046" y="543.6125">&#160;</text><text fill="#000000" font-family="sans-serif" font-size="13" lengthAdjust="spacing" textLength="26.3999" x="250.8369" y="543.6125">that</text><text fill="#000000" font-family="sans-serif" font-size="13" lengthAdjust="spacing" textLength="28.9263" x="12" y="558.7453">&#160;&#160;&#160;&#160;&#160;&#160;&#160;</text><text fill="#000000" font-family="sans-serif" font-size="13" lengthAdjust="spacing" textLength="23.353" x="40.9263" y="558.7453">can</text><text fill="#000000" font-family="sans-serif" font-size="13" lengthAdjust="spacing" textLength="4.1323" x="64.2793" y="558.7453">&#160;</text><text fill="#000000" font-family="sans-serif" font-size="13" lengthAdjust="spacing" textLength="16.25" x="68.4116" y="558.7453">be</text><text fill="#000000" font-family="sans-serif" font-size="13" lengthAdjust="spacing" textLength="4.1323" x="84.6616" y="558.7453">&#160;</text><text fill="#000000" font-family="sans-serif" font-size="13" lengthAdjust="spacing" textLength="31.2622" x="88.7939" y="558.7453">used</text><text fill="#000000" font-family="sans-serif" font-size="13" lengthAdjust="spacing" textLength="4.1323" x="120.0562" y="558.7453">&#160;</text><text fill="#000000" font-family="sans-serif" font-size="13" lengthAdjust="spacing" textLength="13.0508" x="124.1885" y="558.7453">to</text><text fill="#000000" font-family="sans-serif" font-size="13" lengthAdjust="spacing" textLength="4.1323" x="137.2393" y="558.7453">&#160;</text><text fill="#000000" font-family="sans-serif" font-size="13" lengthAdjust="spacing" textLength="52.1968" x="141.3716" y="558.7453">validate</text><text fill="#000000" font-family="sans-serif" font-size="13" lengthAdjust="spacing" textLength="4.1323" x="193.5684" y="558.7453">&#160;</text><text fill="#000000" font-family="sans-serif" font-size="13" lengthAdjust="spacing" textLength="16.2056" x="197.7007" y="558.7453">an</text><text fill="#000000" font-family="sans-serif" font-size="13" lengthAdjust="spacing" textLength="4.1323" x="213.9063" y="558.7453">&#160;</text><text fill="#000000" font-family="sans-serif" font-size="13" lengthAdjust="spacing" textLength="59.4395" x="218.0386" y="558.7453">RO-Crate</text></g><g id="elem_GMN15"><path d="M327.26,488.72 L327.26,574.3841 A0,0 0 0 0 327.26,574.3841 L607.2126,574.3841 A0,0 0 0 0 607.2126,574.3841 L607.2126,498.72 L597.2126,488.72 L441.97,488.72 L377.94,402.11 L433.97,488.72 L327.26,488.72 A0,0 0 0 0 327.26,488.72 " fill="#FEFFDD" style="stroke:#181818;stroke-width:0.5;"/><path d="M597.2126,488.72 L597.2126,498.72 L607.2126,498.72 L597.2126,488.72 " fill="#FEFFDD" style="stroke:#181818;stroke-width:0.5;"/><text fill="#000000" font-family="sans-serif" font-size="13" font-weight="bold" lengthAdjust="spacing" textLength="8.8804" x="333.26" y="505.7869">E</text><text fill="#000000" font-family="sans-serif" font-size="13" lengthAdjust="spacing" textLength="4.1323" x="342.1404" y="505.7869">&#160;</text><text fill="#000000" font-family="sans-serif" font-size="13" lengthAdjust="spacing" textLength="10.8926" x="346.2727" y="505.7869">&#10144;</text><text fill="#000000" font-family="sans-serif" font-size="13" lengthAdjust="spacing" textLength="4.1323" x="357.1653" y="505.7869">&#160;</text><text fill="#000000" font-family="sans-serif" font-size="13" font-weight="bold" lengthAdjust="spacing" textLength="40.936" x="361.2976" y="505.7869">Enum</text><text fill="#000000" font-family="sans-serif" font-size="13" lengthAdjust="spacing" textLength="28.9263" x="333.26" y="520.9197">&#160;&#160;&#160;&#160;&#160;&#160;&#160;</text><text fill="#000000" font-family="sans-serif" font-size="13" lengthAdjust="spacing" textLength="24.1782" x="362.1863" y="520.9197">The</text><text fill="#000000" font-family="sans-serif" font-size="13" lengthAdjust="spacing" textLength="4.1323" x="386.3645" y="520.9197">&#160;</text><text fill="#000000" font-family="sans-serif" font-size="13" font-weight="bold" lengthAdjust="spacing" textLength="61.0264" x="390.4968" y="520.9197">Severity</text><text fill="#000000" font-family="sans-serif" font-size="13" lengthAdjust="spacing" textLength="4.1323" x="451.5232" y="520.9197">&#160;</text><text fill="#000000" font-family="sans-serif" font-size="13" lengthAdjust="spacing" textLength="37.1401" x="455.6555" y="520.9197">enum</text><text fill="#000000" font-family="sans-serif" font-size="13" lengthAdjust="spacing" textLength="4.1323" x="492.7956" y="520.9197">&#160;</text><text fill="#000000" font-family="sans-serif" font-size="13" lengthAdjust="spacing" textLength="69.8179" x="496.928" y="520.9197">represents</text><text fill="#000000" font-family="sans-serif" font-size="13" lengthAdjust="spacing" textLength="4.1323" x="566.7458" y="520.9197">&#160;</text><text fill="#000000" font-family="sans-serif" font-size="13" lengthAdjust="spacing" textLength="21.3345" x="570.8782" y="520.9197">the</text><text fill="#000000" font-family="sans-serif" font-size="13" lengthAdjust="spacing" textLength="28.9263" x="333.26" y="536.0525">&#160;&#160;&#160;&#160;&#160;&#160;&#160;</text><text fill="#000000" font-family="sans-serif" font-size="13" lengthAdjust="spacing" textLength="55.6943" x="362.1863" y="536.0525">different</text><text fill="#000000" font-family="sans-serif" font-size="13" lengthAdjust="spacing" textLength="4.1323" x="417.8806" y="536.0525">&#160;</text><text fill="#000000" font-family="sans-serif" font-size="13" lengthAdjust="spacing" textLength="37.686" x="422.0129" y="536.0525">levels</text><text fill="#000000" font-family="sans-serif" font-size="13" lengthAdjust="spacing" textLength="4.1323" x="459.699" y="536.0525">&#160;</text><text fill="#000000" font-family="sans-serif" font-size="13" lengthAdjust="spacing" textLength="12.5303" x="463.8313" y="536.0525">of</text><text fill="#000000" font-family="sans-serif" font-size="13" lengthAdjust="spacing" textLength="4.1323" x="476.3616" y="536.0525">&#160;</text><text fill="#000000" font-family="sans-serif" font-size="13" lengthAdjust="spacing" textLength="52.2095" x="480.4939" y="536.0525">severity</text><text fill="#000000" font-family="sans-serif" font-size="13" lengthAdjust="spacing" textLength="4.1323" x="532.7034" y="536.0525">&#160;</text><text fill="#000000" font-family="sans-serif" font-size="13" lengthAdjust="spacing" textLength="26.3999" x="536.8357" y="536.0525">that</text><text fill="#000000" font-family="sans-serif" font-size="13" lengthAdjust="spacing" textLength="4.1323" x="563.2356" y="536.0525">&#160;</text><text fill="#000000" font-family="sans-serif" font-size="13" lengthAdjust="spacing" textLength="23.353" x="567.3679" y="536.0525">can</text><text fill="#000000" font-family="sans-serif" font-size="13" lengthAdjust="spacing" textLength="28.9263" x="333.26" y="551.1853">&#160;&#160;&#160;&#160;&#160;&#160;&#160;</text><text fill="#000000" font-family="sans-serif" font-size="13" lengthAdjust="spacing" textLength="16.25" x="362.1863" y="551.1853">be</text><text fill="#000000" font-family="sans-serif" font-size="13" lengthAdjust="spacing" textLength="4.1323" x="378.4363" y="551.1853">&#160;</text><text fill="#000000" font-family="sans-serif" font-size="13" lengthAdjust="spacing" textLength="31.2622" x="382.5686" y="551.1853">used</text><text fill="#000000" font-family="sans-serif" font-size="13" lengthAdjust="spacing" textLength="4.1323" x="413.8308" y="551.1853">&#160;</text><text fill="#000000" font-family="sans-serif" font-size="13" lengthAdjust="spacing" textLength="13.0508" x="417.9631" y="551.1853">to</text><text fill="#000000" font-family="sans-serif" font-size="13" lengthAdjust="spacing" textLength="4.1323" x="431.0139" y="551.1853">&#160;</text><text fill="#000000" font-family="sans-serif" font-size="13" lengthAdjust="spacing" textLength="30.2402" x="435.1462" y="551.1853">filter</text><text fill="#000000" font-family="sans-serif" font-size="13" lengthAdjust="spacing" textLength="4.1323" x="465.3865" y="551.1853">&#160;</text><text fill="#000000" font-family="sans-serif" font-size="13" lengthAdjust="spacing" textLength="87.5596" x="469.5188" y="551.1853">requirements</text><text fill="#000000" font-family="sans-serif" font-size="13" lengthAdjust="spacing" textLength="28.9263" x="333.26" y="566.3181">&#160;&#160;&#160;&#160;&#160;&#160;&#160;</text><text fill="#000000" font-family="sans-serif" font-size="13" lengthAdjust="spacing" textLength="24.4575" x="362.1863" y="566.3181">and</text><text fill="#000000" font-family="sans-serif" font-size="13" lengthAdjust="spacing" textLength="4.1323" x="386.6438" y="566.3181">&#160;</text><text fill="#000000" font-family="sans-serif" font-size="13" lengthAdjust="spacing" textLength="44.8335" x="390.7761" y="566.3181">checks</text><text fill="#000000" font-family="sans-serif" font-size="13" lengthAdjust="spacing" textLength="4.1323" x="435.6096" y="566.3181">&#160;</text><text fill="#000000" font-family="sans-serif" font-size="13" lengthAdjust="spacing" textLength="12.5303" x="439.7419" y="566.3181">of</text><text fill="#000000" font-family="sans-serif" font-size="13" lengthAdjust="spacing" textLength="4.1323" x="452.2722" y="566.3181">&#160;</text><text fill="#000000" font-family="sans-serif" font-size="13" lengthAdjust="spacing" textLength="7.9663" x="456.4045" y="566.3181">a</text><text fill="#000000" font-family="sans-serif" font-size="13" lengthAdjust="spacing" textLength="4.1323" x="464.3708" y="566.3181">&#160;</text><text fill="#000000" font-family="sans-serif" font-size="13" lengthAdjust="spacing" textLength="41.3486" x="468.5032" y="566.3181">profile</text></g><!--link services to Profile--><g id="link_services_Profile"><path codeLine="17" d="M258.7,272.2 C252.78,281.53 247.64,291.5 244.24,301.72 C236.72,324.32 239.6071,346.4169 243.5771,363.4369 " fill="none" id="services-to-Profile" style="stroke:#181818;stroke-width:1;stroke-dasharray:7.0,7.0;"/><polygon fill="#181818" points="244.94,369.28,246.791,359.6066,243.8042,364.4107,239.0002,361.4239,244.94,369.28" style="stroke:#181818;stroke-width:1;"/><text fill="#000000" font-family="sans-serif" font-size="13" lengthAdjust="spacing" textLength="76.4702" x="249.3723" y="314.7869">instantiates</text></g><!--link services to Severity--><g id="link_services_Severity"><path codeLine="18" d="M327.72,271.79 C339.74,306.13 352.2866,341.9973 359.9466,363.8673 " fill="none" id="services-to-Severity" style="stroke:#181818;stroke-width:1;stroke-dasharray:7.0,7.0;"/><polygon fill="#181818" points="361.93,369.53,362.7301,359.7137,360.2772,364.8111,355.1798,362.3582,361.93,369.53" style="stroke:#181818;stroke-width:1;"/><text fill="#000000" font-family="sans-serif" font-size="13" lengthAdjust="spacing" textLength="57.0908" x="348.1523" y="314.7869">filters by</text></g><!--SRC=[bLInRjim4Dtv5GTtQCicGgOE7hgu6Jh5Q0jqC0o3bauHOOfKURHJe-Yl5FssVabF4gamYHiZMYJwtftUU_TascdRAQzQkFEg-wQhqC3xgoiX6bqXjDXkqTDug3MQYeHu3H-nrXOXD0Y4_g1B9D1sE9VE8tIgtAbR5F4EC-zAhm9k3iheIWNdP_1J2E1Bsu2-LcKsQRLwzGHVf6fnYs7JULThWxHUynY8rpl8IcyIPDEfqCpXfWlQMMLMIpwkBo2MDwpB1itA_1me-0jcSK2lmt4EJpcqha93nPS8UGkN7_wFMevlE4sFpl5xAGsZAQpESLaFP7wDnbFZxkuzJuiUI-dNeZWl4EOmuorIK6ma0sdsWXb9mp24ft4M2BR7cM2IrWMEcEl0rTEqORIKdwI4lx__z4yfFb9EJWCiZw5n5lWbUzF7L0N07vqZffEX-hYsYdCRQV42xcbdE5xLWNDICR6Xv_FDvQAN0vCSWRQ2dgzu9l9HyvJyqYWYI2wU3FsZzN7Qu_BGxbkOp7kkDu76vcJhreNWsjxPFAPIBYPZ5psx1wR2LzOkPMnWu2Z0O-UH-2iYK3cQCFJpFNxVQu_j262RoWRB7GrBoU6bih15s1Fx75oo5hbbyZjp-P6893Agk9vKNBDFfqIa1WOELcOYUCCvlj9rZPuhOBZ7q9Z6QFoGB6QUDsGYna0_i217PcxmK9N-apAP_m00]--></g></svg>